<svg xmlns="http://www.w3.org/2000/svg" viewBox="0 0 30 20">
  <rect width="30" height="20" fill="#DE2910"/>
  <g fill="#FFDE00">
    <polygon points="0,-3 0.6735,-0.9271 2.8532,-0.9271 1.0898,0.3541 1.7634,2.4271 0,1.1459 -1.7634,2.4271 -1.0898,0.3541 -2.8532,-0.9271 -0.6735,-0.9271" transform="translate(5 5)"/>
    <polygon points="0,-1.5 0.3368,-0.4635 1.4266,-0.4635 0.5449,0.1771 0.8817,1.2135 0,0.5729 -0.8817,1.2135 -0.5449,0.1771 -1.4266,-0.4635 -0.3368,-0.4635" transform="translate(10 2) rotate(239.03624346792648)"/>
    <polygon points="0,-1.5 0.3368,-0.4635 1.4266,-0.4635 0.5449,0.1771 0.8817,1.2135 0,0.5729 -0.8817,1.2135 -0.5449,0.1771 -1.4266,-0.4635 -0.3368,-0.4635" transform="translate(12 4) rotate(261.86989764584405)"/>
    <polygon points="0,-1.5 0.3368,-0.4635 1.4266,-0.4635 0.5449,0.1771 0.8817,1.2135 0,0.5729 -0.8817,1.2135 -0.5449,0.1771 -1.4266,-0.4635 -0.3368,-0.4635" transform="translate(12 7) rotate(-74.05460409907712)"/>
    <polygon points="0,-1.5 0.3368,-0.4635 1.4266,-0.4635 0.5449,0.1771 0.8817,1.2135 0,0.5729 -0.8817,1.2135 -0.5449,0.1771 -1.4266,-0.4635 -0.3368,-0.4635" transform="translate(10 9) rotate(-51.34019174590992)"/>
  </g>
</svg>
